# xmcd CD database file generated by OrangeCD 6.1
#
# Track frame offsets:
#	150
#	17645
#	35227
#	51500
#	69492
#	83696
#	97817
#	114196
#	136531
#	153307
#	179592
#	193074
#
# Disc length: 2800 seconds
#
# Revision: 1
# Processed by: cddbd v1.5.2PL0 Copyright (c) Steve Scherf et al.
# Submitted via: OrangeCD 6.1
#
DISCID=970aee0c
DTITLE=Alasdair White - An Clar Geal - The White Album
DYEAR=1900
DGENRE=Celtic
TTITLE0=The Weatherman
TTITLE1=The Cockerel In The Creel
TTITLE2=J. Glo's Hornpipe
TTITLE3=Leaving Glendale
TTITLE4=The Bird's Nest
TTITLE5=The Kirkpatricks of Iona
TTITLE6=An Draigheann
TTITLE7=Ziri Piri
TTITLE8=Joe Wilson
TTITLE9=The Amorous Lover
TTITLE10=Oran a'Chaiora
TTITLE11=Sleepy Maggie
EXTD=
EXTT0=
EXTT1=
EXTT2=
EXTT3=
EXTT4=
EXTT5=
EXTT6=
EXTT7=
EXTT8=
EXTT9=
EXTT10=
EXTT11=
PLAYORDER=
